<svg width="10" height="12" viewBox="0 0 10 12" fill="none" xmlns="http://www.w3.org/2000/svg">
<path d="M9.74278 0.308667C9.91426 0.514 10 0.77 10 1.07667V10.9233C10 11.23 9.91444 11.486 9.74333 11.6913C9.57185 11.8971 9.35833 12 9.10278 12H0.897222C0.641667 12 0.428333 11.8973 0.257222 11.692C0.168776 11.5859 0.103139 11.4663 0.0603109 11.3333H0.15218L9.74278 0.308667ZM8.34464 5.95669C8.2866 5.85746 8.21802 5.77256 8.13889 5.70201V5.73008C8.18948 5.77224 8.23669 5.81967 8.28022 5.87191C8.30323 5.89952 8.32469 5.9278 8.34464 5.95669ZM7.63056 5.41V5.50808C7.588 5.50273 7.54446 5.5 7.5 5.5H5.25444V5.41H5.74556H7.13889H7.63056ZM5.25444 5.91H7.5H7.63056V5.92226L7.80219 6.07173C7.83539 6.10065 7.86874 6.13838 7.90044 6.1884C7.90789 6.20017 7.91526 6.21261 7.92251 6.22579C7.91411 6.2143 7.90531 6.20304 7.89611 6.192C7.78944 6.064 7.65741 6 7.5 6H2.5C2.34296 6.00044 2.21111 6.06445 2.10444 6.192C2.09534 6.20289 2.08662 6.21401 2.07828 6.22535C2.08546 6.21234 2.09275 6.20003 2.10012 6.18839C2.13182 6.13837 2.16516 6.10064 2.19837 6.07173L2.37 5.92226V5.91H2.49975H2.5H4.74556H4.75444H5.24556H5.25444ZM4.74556 5.41V5.5L2.5 5.5L2.49858 5.5C2.45481 5.50013 2.41192 5.50289 2.37 5.5082V5.41H2.86111H4.25444H4.74556ZM1.86111 5.70251V5.73075C1.81096 5.77257 1.76411 5.81955 1.72088 5.87125C1.6979 5.89874 1.67646 5.92689 1.65652 5.95566C1.71429 5.8571 1.78249 5.77272 1.86111 5.70251Z" fill="#040A3B" stroke="#040A3B"/>
</svg>
