<svg width="33" height="32" viewBox="0 0 33 32" fill="none" xmlns="http://www.w3.org/2000/svg">
<path d="M16.3334 0C7.51261 0 0.333374 7.17924 0.333374 16C0.333374 24.8208 7.51261 32 16.3334 32C25.1541 32 32.3334 24.8208 32.3334 16C32.3334 7.17924 25.1541 0 16.3334 0ZM16.3334 2.66667C23.713 2.66667 29.6667 8.62041 29.6667 16C29.6667 22.7032 24.749 28.215 18.3177 29.1719V19.888H22.1146L22.711 16.0312H18.3177V13.9245C18.3177 12.3231 18.8439 10.901 20.3412 10.901H22.7474V7.53646C22.3248 7.47913 21.4303 7.35417 19.7396 7.35417C16.209 7.35417 14.1407 9.21815 14.1407 13.4661V16.0312H10.5105V19.888H14.1407V29.138C7.81185 28.0942 3.00004 22.6307 3.00004 16C3.00004 8.62041 8.95378 2.66667 16.3334 2.66667Z" fill="#040A3B"/>
</svg>
