<svg width="12" height="10" viewBox="0 0 12 10" fill="none" xmlns="http://www.w3.org/2000/svg">
<path d="M4.05 6C4.05 5.725 4.2975 5.5 4.6 5.5C4.9025 5.5 5.15 5.725 5.15 6C5.15 6.275 4.9025 6.5 4.6 6.5C4.2975 6.5 4.05 6.275 4.05 6ZM6.25 6.5C6.5525 6.5 6.8 6.275 6.8 6C6.8 5.725 6.5525 5.5 6.25 5.5C5.9475 5.5 5.7 5.725 5.7 6C5.7 6.275 5.9475 6.5 6.25 6.5ZM7.9 6.5C8.2025 6.5 8.45 6.275 8.45 6C8.45 5.725 8.2025 5.5 7.9 5.5C7.5975 5.5 7.35 5.725 7.35 6C7.35 6.275 7.5975 6.5 7.9 6.5ZM6.25 2.75C5.282 2.75 4.479 3.405 4.347 4.25H8.1585C8.09013 3.83386 7.86004 3.45376 7.50992 3.17859C7.1598 2.90341 6.71282 2.75136 6.25 2.75ZM6.25 2C7.768 2 9 3.12 9 4.5V5H3.5V4.5C3.5 3.12 4.732 2 6.25 2ZM4.6 8C4.9025 8 5.15 7.775 5.15 7.5C5.15 7.225 4.9025 7 4.6 7C4.2975 7 4.05 7.225 4.05 7.5C4.05 7.775 4.2975 8 4.6 8ZM6.25 8C6.5525 8 6.8 7.775 6.8 7.5C6.8 7.225 6.5525 7 6.25 7C5.9475 7 5.7 7.225 5.7 7.5C5.7 7.775 5.9475 8 6.25 8ZM7.9 8C8.2025 8 8.45 7.775 8.45 7.5C8.45 7.225 8.2025 7 7.9 7C7.5975 7 7.35 7.225 7.35 7.5C7.35 7.775 7.5975 8 7.9 8ZM10.65 1H1.85V9H10.65V1ZM10.65 0C11.255 0 11.75 0.45 11.75 1V9C11.75 9.55 11.255 10 10.65 10H1.85C1.245 10 0.75 9.55 0.75 9V1C0.75 0.45 1.245 0 1.85 0H10.65Z" fill="#040A3B"/>
</svg>
