<svg width="25" height="25" viewBox="0 0 32 32" fill="none" xmlns="http://www.w3.org/2000/svg">
<path d="M15.9979 0C11.655 0 11.1089 0.0170805 9.40248 0.098212C7.70031 0.175074 6.53566 0.444088 5.52033 0.841206C4.4666 1.25113 3.57499 1.7977 2.68764 2.68588C1.79603 3.57406 1.24997 4.46651 0.840421 5.52122C0.443673 6.5375 0.17491 7.70323 0.0981197 9.40272C0.02133 11.1108 0 11.6573 0 16C0 20.3469 0.02133 20.8892 0.0981197 22.5973C0.17491 24.301 0.44794 25.4625 0.840421 26.4788C1.24997 27.5292 1.79603 28.4259 2.68764 29.3141C3.57499 30.2023 4.47087 30.7531 5.52033 31.1588C6.53993 31.5559 7.70031 31.8249 9.40248 31.9018C11.1089 31.9786 11.655 32 15.9979 32C20.345 32 20.8868 31.9829 22.5933 31.9018C24.2954 31.8249 25.4601 31.5559 26.4797 31.1588C27.5334 30.7489 28.4207 30.2023 29.3124 29.3141C30.204 28.4259 30.75 27.5335 31.1596 26.4788C31.5521 25.4625 31.8208 24.2968 31.9019 22.5973C31.9787 20.8892 32 20.3469 32 16C32 11.6531 31.9787 11.1108 31.9019 9.40272C31.8208 7.69896 31.5521 6.5375 31.1596 5.52122C30.75 4.47078 30.204 3.57406 29.3124 2.68588C28.4207 1.7977 27.5334 1.25113 26.4797 0.841206C25.4601 0.444088 24.2954 0.175074 22.5933 0.098212C20.8868 0.0213505 20.345 0 15.9979 0ZM14.5602 2.88658C14.9868 2.88658 15.4603 2.88658 15.9936 2.88658C20.264 2.88658 20.7716 2.90366 22.4567 2.98052C24.0181 3.05311 24.8628 3.31358 25.4259 3.53136C26.1725 3.82172 26.7058 4.1676 27.2646 4.72698C27.8235 5.28636 28.1733 5.82012 28.4634 6.56739C28.681 7.13104 28.9455 7.97651 29.0137 9.53936C29.0905 11.226 29.1076 11.7342 29.1076 16.0043C29.1076 20.2744 29.0905 20.7825 29.0137 22.4692C28.9412 24.0278 28.681 24.8775 28.4634 25.4412C28.1733 26.1884 27.8278 26.7179 27.2646 27.2773C26.7058 27.8367 26.1725 28.1825 25.4259 28.4729C24.8628 28.695 24.0139 28.9512 22.4567 29.0238C20.7716 29.1006 20.264 29.1177 15.9936 29.1177C11.7232 29.1177 11.2156 29.1006 9.53046 29.0238C7.96907 28.9512 7.12438 28.6907 6.56126 28.4729C5.81469 28.1825 5.28143 27.8367 4.72257 27.2773C4.16371 26.7179 3.81389 26.1841 3.5238 25.4369C3.30623 24.8732 3.04173 24.0278 2.97347 22.4649C2.89668 20.7782 2.87962 20.2701 2.87962 16C2.87962 11.7256 2.89668 11.2218 2.97347 9.53509C3.04599 7.97651 3.30623 7.12677 3.5238 6.56312C3.81389 5.81585 4.15944 5.28209 4.72257 4.72271C5.28143 4.16333 5.81469 3.81745 6.56126 3.52709C7.12438 3.30504 7.97334 3.04884 9.53046 2.97625C11.0065 2.90366 11.5825 2.88231 14.5602 2.88658ZM24.5386 5.54257C23.4806 5.54257 22.6189 6.40085 22.6189 7.4641C22.6189 8.52308 23.4806 9.38564 24.5386 9.38564C25.5966 9.38564 26.4583 8.52735 26.4583 7.4641C26.4583 6.40085 25.5966 5.54257 24.5386 5.54257ZM15.9979 7.78436C11.4587 7.78436 7.78136 11.4652 7.78136 16C7.78136 20.5391 11.4587 24.2156 15.9979 24.2156C20.537 24.2156 24.2101 20.5391 24.2101 16C24.2101 11.4652 20.5327 7.78436 15.9979 7.78436ZM15.9979 10.6709C18.9415 10.6709 21.3305 13.0579 21.3305 16.0043C21.3305 18.9506 18.9415 21.3376 15.9979 21.3376C13.0543 21.3376 10.6652 18.9506 10.6652 16.0043C10.6652 13.0579 13.05 10.6709 15.9979 10.6709Z" fill="white"/>
</svg>
