<svg width="32" height="32" viewBox="0 0 32 32" fill="none" xmlns="http://www.w3.org/2000/svg">
<path d="M29.1667 0C30.7138 0 32.1975 0.614582 33.2915 1.70854C34.3854 2.80251 35 4.28624 35 5.83333V29.1667C35 30.7138 34.3854 32.1975 33.2915 33.2915C32.1975 34.3854 30.7138 35 29.1667 35H5.83333C4.28624 35 2.80251 34.3854 1.70854 33.2915C0.614582 32.1975 0 30.7138 0 29.1667V5.83333C0 4.28624 0.614582 2.80251 1.70854 1.70854C2.80251 0.614582 4.28624 0 5.83333 0H29.1667ZM29.1667 3.88889H5.83333C5.31763 3.88889 4.82306 4.09375 4.4584 4.4584C4.09375 4.82306 3.88889 5.31763 3.88889 5.83333V29.1667C3.88889 29.6824 4.09375 30.1769 4.4584 30.5416C4.82306 30.9063 5.31763 31.1111 5.83333 31.1111H29.1667C29.6824 31.1111 30.1769 30.9063 30.5416 30.5416C30.9063 30.1769 31.1111 29.6824 31.1111 29.1667V5.83333C31.1111 5.31763 30.9063 4.82306 30.5416 4.4584C30.1769 4.09375 29.6824 3.88889 29.1667 3.88889ZM9.72222 13.6111C10.1985 13.6112 10.6582 13.786 11.0141 14.1025C11.37 14.419 11.5973 14.8551 11.6531 15.3281L11.6667 15.5556V25.2778C11.6661 25.7734 11.4763 26.2501 11.1361 26.6104C10.7959 26.9708 10.3309 27.1877 9.83618 27.2167C9.34143 27.2458 8.85426 27.0848 8.47421 26.7667C8.09417 26.4486 7.84992 25.9974 7.79139 25.5053L7.77778 25.2778V15.5556C7.77778 15.0399 7.98264 14.5453 8.34729 14.1806C8.71195 13.816 9.20652 13.6111 9.72222 13.6111ZM15.5556 11.6667C16.0109 11.6666 16.4519 11.8264 16.8015 12.1181C17.1512 12.4098 17.3874 12.815 17.4689 13.2631C17.8602 13.0362 18.2647 12.8329 18.6803 12.6544C19.9772 12.1003 21.9197 11.795 23.6736 12.3453C24.5933 12.6369 25.5169 13.1814 26.2014 14.1089C26.8139 14.9353 27.1444 15.9406 27.2106 17.0703L27.2222 17.5V25.2778C27.2217 25.7734 27.0319 26.2501 26.6917 26.6104C26.3515 26.9708 25.8865 27.1877 25.3917 27.2167C24.897 27.2458 24.4098 27.0848 24.0298 26.7667C23.6497 26.4486 23.4055 25.9974 23.3469 25.5053L23.3333 25.2778V17.5C23.3333 16.8583 23.1778 16.5589 23.0767 16.4208C22.9315 16.2403 22.7315 16.112 22.5069 16.0553C21.8303 15.8414 20.8561 15.9542 20.2086 16.2303C19.2364 16.6464 18.3458 17.2997 17.7392 17.9044L17.5 18.1611V25.2778C17.4995 25.7734 17.3097 26.2501 16.9695 26.6104C16.6292 26.9708 16.1643 27.1877 15.6695 27.2167C15.1748 27.2458 14.6876 27.0848 14.3075 26.7667C13.9275 26.4486 13.6833 25.9974 13.6247 25.5053L13.6111 25.2778V13.6111C13.6111 13.0954 13.816 12.6008 14.1806 12.2362C14.5453 11.8715 15.0399 11.6667 15.5556 11.6667ZM9.72222 7.77778C10.2379 7.77778 10.7325 7.98264 11.0972 8.34729C11.4618 8.71195 11.6667 9.20652 11.6667 9.72222C11.6667 10.2379 11.4618 10.7325 11.0972 11.0972C10.7325 11.4618 10.2379 11.6667 9.72222 11.6667C9.20652 11.6667 8.71195 11.4618 8.34729 11.0972C7.98264 10.7325 7.77778 10.2379 7.77778 9.72222C7.77778 9.20652 7.98264 8.71195 8.34729 8.34729C8.71195 7.98264 9.20652 7.77778 9.72222 7.77778Z" fill="#040A3B"/>
</svg>
