<svg width="25" height="25" viewBox="0 0 32 32" fill="none" xmlns="http://www.w3.org/2000/svg">
<path d="M16 0C7.17924 0 0 7.17924 0 16C0 24.8208 7.17924 32 16 32C24.8208 32 32 24.8208 32 16C32 7.17924 24.8208 0 16 0ZM16 2.66667C23.3796 2.66667 29.3333 8.62041 29.3333 16C29.3333 22.7032 24.4156 28.215 17.9844 29.1719V19.888H21.7812L22.3776 16.0312H17.9844V13.9245C17.9844 12.3231 18.5105 10.901 20.0078 10.901H22.4141V7.53646C21.9914 7.47913 21.0969 7.35417 19.4062 7.35417C15.8756 7.35417 13.8073 9.21815 13.8073 13.4661V16.0312H10.1771V19.888H13.8073V29.138C7.47847 28.0942 2.66667 22.6307 2.66667 16C2.66667 8.62041 8.62041 2.66667 16 2.66667Z" fill="white"/>
</svg>
